<svg width="17" height="17" viewBox="0 0 17 17" fill="none" xmlns="http://www.w3.org/2000/svg">
<g clip-path="url(#clip0_2858_28)">
<path d="M5.3125 5.3125V10.625H13.1707L14.3501 5.3125H5.3125ZM3.1875 3.1875H17L14.875 12.75H3.1875V3.1875Z" fill="#2B2C30"/>
<path fill-rule="evenodd" clip-rule="evenodd" d="M3.1875 1.0625H5.3125V4.25H3.1875V1.0625Z" fill="#2B2C30"/>
<path fill-rule="evenodd" clip-rule="evenodd" d="M0 0H5.3125V2.125H0V0Z" fill="#2B2C30"/>
<path d="M4.78125 17C5.66145 17 6.375 16.2865 6.375 15.4062C6.375 14.526 5.66145 13.8125 4.78125 13.8125C3.90105 13.8125 3.1875 14.526 3.1875 15.4062C3.1875 16.2865 3.90105 17 4.78125 17Z" fill="#2B2C30"/>
<path d="M12.2188 17C13.099 17 13.8125 16.2865 13.8125 15.4062C13.8125 14.526 13.099 13.8125 12.2188 13.8125C11.3385 13.8125 10.625 14.526 10.625 15.4062C10.625 16.2865 11.3385 17 12.2188 17Z" fill="#2B2C30"/>
</g>
<defs>
<clipPath id="clip0_2858_28">
<rect width="17" height="17" fill="white"/>
</clipPath>
</defs>
</svg>
