<svg width="170" height="26" viewBox="0 0 170 26" fill="none" xmlns="http://www.w3.org/2000/svg">
<g clip-path="url(#clip0_2306_356)">
<path fill-rule="evenodd" clip-rule="evenodd" d="M0 24.635V1.91992H17.677V6.36559H5.12232V10.9735H16.1705V15.4191H5.12232V20.1893H17.8444V24.635H0ZM20.3888 24.635L26.6829 15.8086L20.6232 7.24173H26.0804L29.4283 12.3039L32.8097 7.24173H38.1329L32.0731 15.7112L38.4007 24.635H32.9436L29.3278 19.2158L25.712 24.635H20.3888ZM46.5362 24.9595C44.7729 24.9595 43.3054 24.4836 42.1336 23.5317C40.9618 22.5798 40.3759 21.2602 40.3759 19.5728C40.3759 17.7339 41.0288 16.3494 42.3345 15.4191C43.6402 14.4889 45.3979 14.0238 47.6075 14.0238C49.1029 14.0238 50.5648 14.2617 51.9932 14.7377V14.4457C51.9932 12.3256 50.7099 11.2655 48.1431 11.2655C46.6031 11.2655 44.9515 11.5792 43.1882 12.2066L41.916 8.4424C44.1034 7.51215 46.4246 7.04703 48.8797 7.04703C51.5804 7.04703 53.6003 7.69605 54.9394 8.99406C56.234 10.2488 56.8812 12.0984 56.8812 14.543V24.635H51.9598V22.7529C50.5983 24.2239 48.7904 24.9595 46.5362 24.9595ZM48.0762 21.5522C49.2592 21.5522 50.2189 21.2656 50.9554 20.6923C51.692 20.119 52.0602 19.3889 52.0602 18.5019V17.6258C51.1005 17.1931 50.018 16.9767 48.8127 16.9767C47.6967 16.9767 46.8319 17.1877 46.2181 17.6095C45.6043 18.0314 45.2974 18.6425 45.2974 19.4429C45.2974 20.0919 45.5541 20.6057 46.0674 20.9843C46.5808 21.363 47.2504 21.5522 48.0762 21.5522ZM61.267 24.635V7.24173H66.3559V9.70792C67.8512 7.84746 69.6144 6.91724 71.6456 6.91724C74.0337 6.91724 75.7189 7.83668 76.7009 9.67549C78.3303 7.83668 80.2943 6.91724 82.5932 6.91724C84.5128 6.91724 86.0027 7.46347 87.0628 8.55596C88.123 9.64842 88.6526 11.2331 88.6526 13.3099V24.635H83.5645V14.9324C83.5645 12.5743 82.5712 11.3953 80.5847 11.3953C79.6245 11.3953 78.8713 11.6982 78.3247 12.3039C77.7778 12.9097 77.5044 13.7859 77.5044 14.9324V24.635H72.4156V14.9324C72.4156 12.5743 71.4224 11.3953 69.436 11.3953C68.4762 11.3953 67.7229 11.6982 67.1761 12.3039C66.6293 12.9097 66.3559 13.7859 66.3559 14.9324V24.635H61.267Z" fill="#2B2C30"/>
<path d="M101.415 25.2354H107.233V4.7535H115.279V-0.45874H93.3682V4.7535H101.415V25.2354ZM124.761 25.6758C128.425 25.6758 131.145 24.281 133.034 22.0053L129.747 19.1789C128.161 20.6104 126.763 21.1977 124.836 21.1977C122.267 21.1977 120.454 19.8763 119.887 17.3436H133.978C134.016 16.8297 134.054 16.3158 134.054 15.8754C134.054 10.2961 130.956 5.19397 124.194 5.19397C118.301 5.19397 114.183 9.81891 114.183 15.4349C114.183 21.5281 118.678 25.6758 124.761 25.6758ZM119.812 13.8566C120.265 11.3239 121.814 9.67208 124.194 9.67208C126.612 9.67208 128.123 11.3606 128.463 13.8566H119.812ZM145.435 25.6024C149.818 25.6024 153.18 23.6203 153.18 19.2523C153.18 15.5817 149.893 14.2603 147.06 13.3427C144.869 12.6086 142.942 12.0947 142.942 10.9935C142.942 10.1493 143.66 9.56197 145.058 9.56197C146.531 9.56197 148.533 10.2594 150.535 11.3973L152.726 7.54314C150.535 6.11161 147.74 5.26738 145.171 5.26738C141.091 5.26738 137.767 7.50644 137.767 11.5074C137.767 15.3982 140.978 16.6829 143.811 17.4904C146.04 18.1511 148.004 18.5549 148.004 19.7662C148.004 20.7206 147.249 21.3078 145.586 21.3078C143.698 21.3078 141.393 20.5003 139.202 18.9587L136.746 22.6293C139.429 24.6848 142.602 25.6024 145.435 25.6024ZM163.765 25.5657C165.691 25.5657 167.089 25.1253 168.298 24.4279V19.9497C167.467 20.3902 166.522 20.6471 165.465 20.6471C164.18 20.6471 163.614 20.0231 163.614 18.7384V10.3328H168.374V5.56103H163.614V0.532319H157.871V5.56103H155.454V10.3328H157.871V19.6561C157.871 24.2076 160.251 25.5657 163.765 25.5657Z" fill="url(#paint0_linear_2306_356)"/>
</g>
<defs>
<linearGradient id="paint0_linear_2306_356" x1="131.436" y1="-3.05874" x2="131.436" y2="32.1177" gradientUnits="userSpaceOnUse">
<stop stop-color="#3083E7"/>
<stop offset="1" stop-color="#594CC3"/>
</linearGradient>
<clipPath id="clip0_2306_356">
<rect width="170" height="26" fill="white"/>
</clipPath>
</defs>
</svg>
