<svg width="13" height="13" viewBox="0 0 13 13" fill="none" xmlns="http://www.w3.org/2000/svg">
<path d="M7.57716 9.74976H5.13961C5.0314 9.74976 4.93656 9.79063 4.85531 9.87174C4.77399 9.95306 4.7334 10.0478 4.7334 10.1561V12.5938C4.7334 12.7021 4.77413 12.797 4.85531 12.8781C4.93656 12.9592 5.03129 13 5.13961 13H7.57716C7.68537 13 7.78046 12.9593 7.86139 12.8781C7.94285 12.797 7.98351 12.7021 7.98351 12.5938V10.1561C7.98351 10.0478 7.94296 9.95306 7.86139 9.87174C7.78046 9.79042 7.68537 9.74976 7.57716 9.74976Z" fill="#2B2C30"/>
<path d="M10.7768 2.45282C10.4991 1.94134 10.1403 1.50991 9.70011 1.15773C9.26018 0.805701 8.76556 0.524565 8.21724 0.314753C7.6688 0.105013 7.12378 0 6.582 0C4.52376 0 2.95295 0.90054 1.86952 2.70165C1.81542 2.78963 1.79674 2.88439 1.81364 2.98599C1.83064 3.08745 1.88311 3.17211 1.97112 3.23981L3.63681 4.50946C3.72482 4.56353 3.80948 4.5906 3.89077 4.5906C4.01268 4.5906 4.11755 4.53635 4.20566 4.42803C4.69309 3.81873 5.0554 3.42941 5.29236 3.26005C5.58356 3.06376 5.94908 2.96564 6.38919 2.96564C6.8022 2.96564 7.16604 3.074 7.48101 3.2905C7.79583 3.50721 7.9531 3.75776 7.9531 4.04213C7.9531 4.36023 7.86862 4.61764 7.69929 4.814C7.53007 5.01029 7.24559 5.19979 6.84603 5.38268C6.31805 5.61963 5.83371 5.987 5.39381 6.48467C4.95359 6.98237 4.73364 7.5122 4.73364 8.07416V8.53117C4.73364 8.65994 4.769 8.78683 4.84022 8.91209C4.91137 9.03745 4.99763 9.10002 5.09927 9.10002H7.53679C7.64515 9.10002 7.73984 9.04766 7.82116 8.94236C7.90223 8.8377 7.94304 8.72764 7.94304 8.6127C7.94304 8.44348 8.03613 8.21641 8.22218 7.93218C8.40841 7.64781 8.64024 7.42754 8.91807 7.27176C9.18199 7.12285 9.38831 7.00283 9.53744 6.9113C9.6867 6.82002 9.88122 6.67242 10.1217 6.46944C10.362 6.26625 10.5482 6.0648 10.6801 5.86512C10.8122 5.66541 10.9307 5.40637 11.0357 5.08806C11.1408 4.76985 11.1932 4.42789 11.1932 4.0623C11.1931 3.50031 11.0542 2.96376 10.7768 2.45282Z" fill="#2B2C30"/>
</svg>
