<svg width="18" height="18" viewBox="0 0 18 18" fill="none" xmlns="http://www.w3.org/2000/svg">
<g clip-path="url(#clip0_2858_22)">
<path d="M9.00015 9.0001C10.2427 9.0001 11.3032 8.5605 12.182 7.68165C13.0609 6.80281 13.5004 5.7423 13.5004 4.49995C13.5004 3.25781 13.0609 2.19725 12.182 1.3182C11.3029 0.439401 10.2423 0 9.00015 0C7.75797 0 6.69725 0.439401 5.81845 1.3182C4.93948 2.19725 4.5 3.25776 4.5 4.49995C4.5 5.7423 4.93948 6.80281 5.81845 7.68165C6.6975 8.5605 7.75793 9.0001 9.00015 9.0001Z" fill="white"/>
<path d="M17.2092 13.752C17.1817 13.3576 17.127 12.9317 17.0451 12.4746C16.963 12.0175 16.8594 11.5939 16.7344 11.2031C16.6094 10.8126 16.4414 10.4317 16.2304 10.0605C16.0196 9.68941 15.7774 9.37307 15.5038 9.11123C15.2302 8.84948 14.8962 8.64064 14.502 8.48442C14.1073 8.32823 13.6717 8.25 13.1951 8.25C13.1248 8.25 12.9607 8.33398 12.7029 8.50198C12.4453 8.66999 12.1542 8.85753 11.83 9.06465C11.5058 9.2714 11.0837 9.45906 10.5644 9.62678C10.0448 9.79478 9.5234 9.8788 8.99978 9.8788C8.47635 9.8788 7.9549 9.79478 7.43542 9.62678C6.91598 9.45906 6.49398 9.2714 6.16976 9.06465C5.84557 8.85753 5.5546 8.67003 5.29682 8.50198C5.03893 8.33398 4.87495 8.25 4.80464 8.25C4.32809 8.25 3.89251 8.32823 3.49801 8.48442C3.10343 8.64064 2.76948 8.84965 2.49599 9.11123C2.22258 9.37307 1.98036 9.68941 1.76951 10.0605C1.55865 10.4317 1.39069 10.8127 1.26566 11.2031C1.14068 11.5939 1.03712 12.0175 0.955108 12.4746C0.873016 12.9317 0.818342 13.3573 0.790964 13.752C0.763627 14.1467 0.75 14.551 0.75 14.9651C0.75 15.9024 1.03523 16.6429 1.60549 17.1859C2.17587 17.7287 2.93375 18 3.87904 18H14.1215C15.0667 18 15.8245 17.7287 16.3949 17.1859C16.9655 16.6429 17.2505 15.9026 17.2505 14.9651C17.2505 14.551 17.2368 14.1467 17.2092 13.752Z" fill="white"/>
</g>
<defs>
<clipPath id="clip0_2858_22">
<rect width="18" height="18" fill="white"/>
</clipPath>
</defs>
</svg>
