<svg width="50" height="50" viewBox="0 0 50 50" fill="none" xmlns="http://www.w3.org/2000/svg">
<g clip-path="url(#clip0_2858_270)">
<path d="M45.1355 20.137C45.1355 9.0332 36.102 0 24.9978 0C13.8939 0 4.86035 9.0332 4.86035 20.137C4.86035 31.2405 13.8939 40.2737 24.9978 40.2737C36.102 40.2737 45.1355 31.2405 45.1355 20.137V20.137ZM21.4081 28.727L14.5329 21.8517L16.6169 19.7681L21.4081 24.5594L33.379 12.5889L35.463 14.6725L21.4081 28.727Z" fill="#0FC962"/>
<path d="M6.38885 33.7769L0.292969 42.6678L9.30557 40.987L10.9863 50L16.6946 41.6744C12.5504 40.0711 8.98132 37.3047 6.38885 33.7769Z" fill="#0FC962"/>
<path d="M43.6075 33.7769C41.0151 37.3047 37.446 40.0711 33.3018 41.6744L39.0101 50L40.6908 40.987L49.7034 42.6678L43.6075 33.7769Z" fill="#0FC962"/>
</g>
<defs>
<clipPath id="clip0_2858_270">
<rect width="50" height="50" fill="white"/>
</clipPath>
</defs>
</svg>
