<svg width="12" height="18" viewBox="0 0 12 18" fill="none" xmlns="http://www.w3.org/2000/svg">
<path d="M4.968 12.696L4.488 8.808L4.608 8.688C7.568 8.576 9.048 7.664 9.048 5.952C9.048 5.264 8.8 4.712 8.304 4.296C7.808 3.88 7.136 3.672 6.288 3.672C4.864 3.672 3.56 4.304 2.376 5.568L0.576 3.648C2.144 1.872 4.072 0.983999 6.36 0.983999C8.056 0.983999 9.416 1.432 10.44 2.328C11.464 3.208 11.976 4.4 11.976 5.904C11.976 7.328 11.536 8.432 10.656 9.216C9.776 9.984 8.608 10.496 7.152 10.752L6.912 12.696H4.968ZM4.272 18V14.712H7.488V18H4.272Z" fill="white"/>
</svg>
