<svg width="13" height="13" viewBox="0 0 13 13" fill="none" xmlns="http://www.w3.org/2000/svg">
<g clip-path="url(#clip0_2858_102)">
<path d="M11.1042 3.15H8.39584C8.3017 3.15 8.225 3.07302 8.225 2.97916V0.270842C8.225 0.0661134 8.05889 -0.1 7.85416 -0.1H2.4375C1.9343 -0.1 1.525 0.309305 1.525 0.8125V12.1875C1.525 12.6907 1.9343 13.1 2.4375 13.1H10.5625C11.0657 13.1 11.475 12.6907 11.475 12.1875V3.52084C11.475 3.31611 11.3089 3.15 11.1042 3.15ZM10.7333 12.1875C10.7333 12.2814 10.6566 12.3583 10.5625 12.3583H2.4375C2.34336 12.3583 2.26666 12.2814 2.26666 12.1875V0.8125C2.26666 0.718634 2.34336 0.641658 2.4375 0.641658H7.48334V2.97916C7.48334 3.48235 7.89265 3.89166 8.39584 3.89166H10.7333V12.1875Z" fill="#2B2C30" stroke="black" stroke-width="0.2"/>
<path d="M10.8415 3.78338L10.8419 3.78376C10.9143 3.85537 11.0091 3.89176 11.104 3.89176C11.1988 3.89176 11.2938 3.85546 11.3659 3.78338C11.5106 3.63871 11.5106 3.40367 11.3659 3.259L8.11591 0.0089962C7.97123 -0.135681 7.73619 -0.135681 7.59152 0.0089962C7.44684 0.153674 7.44684 0.388707 7.59152 0.533385L10.8415 3.78338Z" fill="#2B2C30" stroke="black" stroke-width="0.2"/>
</g>
<defs>
<clipPath id="clip0_2858_102">
<rect width="13" height="13" fill="white"/>
</clipPath>
</defs>
</svg>
