<svg width="14" height="14" viewBox="0 0 14 14" fill="none" xmlns="http://www.w3.org/2000/svg">
<g clip-path="url(#clip0_2858_73)">
<path fill-rule="evenodd" clip-rule="evenodd" d="M12.8445 10.8445V9.62218C12.8454 9.51653 12.8254 9.41175 12.7858 9.31383C12.7461 9.2159 12.6876 9.12674 12.6135 9.05144C12.5394 8.97613 12.4512 8.91617 12.3539 8.87496C12.2566 8.83374 12.1522 8.8121 12.0465 8.81125H7.43513V7.53833H6.53051V8.81018H1.94282C1.72965 8.81217 1.52599 8.89869 1.37656 9.05074C1.22714 9.20279 1.14418 9.40793 1.1459 9.6211V10.8488C0.813541 10.9476 0.522193 11.1515 0.315587 11.43C0.108981 11.7084 -0.00173708 12.0464 5.28182e-05 12.3931C-0.00165116 12.6024 0.0378897 12.81 0.116418 13.004C0.194945 13.1981 0.310922 13.3747 0.457726 13.5239C0.60453 13.6731 0.779285 13.7919 0.972012 13.8736C1.16474 13.9553 1.37167 13.9982 1.58098 13.9999C1.79037 13.9983 1.99742 13.9555 2.19027 13.8739C2.38312 13.7923 2.558 13.6735 2.70492 13.5243C2.85184 13.3751 2.96791 13.1984 3.04651 13.0043C3.1251 12.8102 3.16468 12.6025 3.16297 12.3931C3.16297 11.6737 2.69451 11.0631 2.05374 10.8596V9.7331H6.53374V10.8596C6.20876 10.9633 5.92528 11.1679 5.72446 11.4436C5.52364 11.7194 5.41594 12.052 5.41697 12.3931C5.41527 12.6024 5.45481 12.81 5.53334 13.004C5.61187 13.1981 5.72784 13.3747 5.87465 13.5239C6.02145 13.6731 6.19621 13.7919 6.38893 13.8736C6.58166 13.9553 6.78859 13.9982 6.9979 13.9999C7.2073 13.9983 7.41434 13.9555 7.60719 13.8739C7.80004 13.7923 7.97492 13.6735 8.12184 13.5243C8.26876 13.3751 8.38483 13.1984 8.46343 13.0043C8.54202 12.8102 8.5816 12.6025 8.5799 12.3931C8.5799 11.6629 8.09636 11.0448 7.43836 10.8531V9.7331H11.9356V10.8596C11.6145 10.9663 11.3354 11.1717 11.1382 11.4466C10.9409 11.7214 10.8355 12.0516 10.8371 12.3899C10.8354 12.5993 10.875 12.8069 10.9536 13.001C11.0322 13.1951 11.1483 13.3718 11.2952 13.5211C11.4421 13.6703 11.617 13.7891 11.8098 13.8707C12.0027 13.9523 12.2097 13.9951 12.4191 13.9966C12.6284 13.9949 12.8354 13.952 13.0281 13.8704C13.2208 13.7887 13.3956 13.6699 13.5424 13.5207C13.6892 13.3715 13.8052 13.1948 13.8837 13.0008C13.9622 12.8068 14.0018 12.5992 14 12.3899C14 11.6522 13.51 11.034 12.8445 10.8456V10.8445Z" fill="#2B2C30"/>
<path fill-rule="evenodd" clip-rule="evenodd" d="M10.4997 5.96176C9.81308 5.42998 9.07196 4.9726 8.28878 4.59729C8.27728 4.59203 8.26759 4.58351 8.26089 4.57279C8.25419 4.56207 8.25078 4.54962 8.25108 4.53699V3.83376C8.35744 3.66094 8.42981 3.46941 8.46432 3.26945C8.54724 3.26406 8.65385 3.15314 8.77232 2.75791C8.91985 2.25176 8.78308 2.14837 8.64524 2.14837C8.65924 2.10637 8.67001 2.06222 8.67862 2.01914C8.91985 0.620218 8.20478 0.57068 8.20478 0.57068C8.09901 0.405308 7.95005 0.271992 7.77401 0.185141C7.50377 0.0364144 7.19446 -0.0259735 6.8877 0.00637215C6.76714 0.0118519 6.64791 0.0339582 6.53339 0.0720644C6.39487 0.117282 6.26357 0.182204 6.14355 0.264834C6.00139 0.350988 5.86355 0.459757 5.74293 0.581449C5.53386 0.779242 5.38397 1.03131 5.31001 1.30945C5.2497 1.53345 5.2637 1.76822 5.31216 2.02022C5.32078 2.0633 5.33155 2.10853 5.34555 2.14945C5.21093 2.15268 5.07955 2.25822 5.22493 2.76006C5.34016 3.1553 5.45001 3.26622 5.53185 3.2716C5.56201 3.45037 5.63308 3.64853 5.74616 3.83591V4.54022C5.74832 4.56391 5.73216 4.5876 5.71062 4.59729C4.93016 4.97112 4.19156 5.42669 3.50724 5.95637C3.42136 6.02258 3.35177 6.10757 3.3038 6.20482C3.25583 6.30207 3.23074 6.40901 3.23047 6.51745V7.17222C3.23047 7.37468 3.40062 7.53837 3.6117 7.53837H10.3877C10.4368 7.53937 10.4856 7.53069 10.5313 7.51283C10.577 7.49497 10.6188 7.46828 10.6542 7.43427C10.6896 7.40027 10.7179 7.35963 10.7376 7.31466C10.7573 7.2697 10.768 7.22129 10.7689 7.17222V6.51745C10.7682 6.41063 10.7436 6.30533 10.6971 6.2092C10.6505 6.11307 10.5831 6.02853 10.4997 5.96176Z" fill="#2B2C30"/>
</g>
<defs>
<clipPath id="clip0_2858_73">
<rect width="14" height="14" fill="white"/>
</clipPath>
</defs>
</svg>
