<svg width="13" height="13" viewBox="0 0 13 13" fill="none" xmlns="http://www.w3.org/2000/svg">
<g clip-path="url(#clip0_2858_84)">
<path d="M9.71113 9.92405L9.71093 9.92405C9.18052 9.9251 8.75076 10.3549 8.74968 10.8853V10.8855V12.4263C8.72902 12.4287 8.71007 12.43 8.69307 12.43H3.36792H3.36633C3.33721 12.4291 3.31131 12.4027 3.31131 12.3735V2.34939C3.31131 2.31968 3.33818 2.29278 3.36792 2.29278H11.3559C11.3855 2.29278 11.4125 2.31974 11.4125 2.34939L11.4122 9.86743C11.4122 9.88421 11.4107 9.90316 11.4079 9.92405H9.71113ZM11.3559 1.62288H10.3595V0.626512C10.3595 0.226691 10.0328 -0.1 9.63313 -0.1H1.64504C1.24524 -0.1 0.918555 0.226686 0.918555 0.626512V10.6506C0.918555 11.0504 1.24524 11.3771 1.64507 11.3771H2.64146V12.3735C2.64146 12.7733 2.968 13.1 3.36797 13.1H8.69312C8.88172 13.1 9.10252 13.0477 9.30641 12.9668C9.5103 12.886 9.70695 12.7728 9.84426 12.6435L11.5944 10.9962C11.5944 10.9961 11.5944 10.9961 11.5944 10.9961C11.7328 10.866 11.8537 10.6754 11.9399 10.4758C12.0262 10.276 12.0821 10.0573 12.0821 9.86749L12.0824 2.34944C12.0824 1.94959 11.7557 1.62288 11.3559 1.62288ZM2.64141 2.34942V10.7072H1.64504C1.61539 10.7072 1.58843 10.6803 1.58843 10.6506V0.626512C1.58843 0.59686 1.61539 0.569903 1.64504 0.569903H9.63316C9.66272 0.569903 9.68976 0.596923 9.68976 0.626512V1.6229H3.36792C2.96795 1.6229 2.64141 1.9496 2.64141 2.34942ZM9.71116 10.594H11.0443L9.41958 12.1232V10.8855C9.41958 10.8059 9.45137 10.7342 9.50519 10.6799C9.5598 10.6258 9.63163 10.594 9.71116 10.594Z" fill="#2B2C30" stroke="#2B2C30" stroke-width="0.2"/>
<path d="M9.63255 3.81553H5.09041C4.90533 3.81553 4.75547 3.96539 4.75547 4.15047C4.75547 4.33555 4.90536 4.4854 5.09041 4.4854H9.63255C9.81743 4.4854 9.96749 4.33558 9.96749 4.15047C9.96749 3.96535 9.81743 3.81553 9.63255 3.81553Z" fill="#2B2C30" stroke="#2B2C30" stroke-width="0.2"/>
<path d="M9.63255 6.9481H5.09041C4.90533 6.9481 4.75547 7.09796 4.75547 7.28303C4.75547 7.46812 4.90536 7.61797 5.09041 7.61797H9.63255C9.81743 7.61797 9.96749 7.46815 9.96749 7.28303C9.96749 7.09788 9.81743 6.9481 9.63255 6.9481Z" fill="#2B2C30" stroke="#2B2C30" stroke-width="0.2"/>
<path d="M7.59641 8.5145H5.09041C4.90533 8.5145 4.75547 8.66437 4.75547 8.84944C4.75547 9.03452 4.90533 9.18438 5.09041 9.18438H7.59641C7.78137 9.18438 7.93119 9.03448 7.93119 8.84944C7.93119 8.66441 7.78137 8.5145 7.59641 8.5145Z" fill="#2B2C30" stroke="#2B2C30" stroke-width="0.2"/>
<path d="M9.63255 5.38193H5.09041C4.90533 5.38193 4.75547 5.5318 4.75547 5.71687C4.75547 5.90196 4.90536 6.05181 5.09041 6.05181H9.63255C9.81743 6.05181 9.96749 5.90199 9.96749 5.71687C9.96749 5.53175 9.81743 5.38193 9.63255 5.38193Z" fill="#2B2C30" stroke="#2B2C30" stroke-width="0.2"/>
</g>
<defs>
<clipPath id="clip0_2858_84">
<rect width="13" height="13" fill="white"/>
</clipPath>
</defs>
</svg>
