<svg width="12" height="14" viewBox="0 0 12 14" fill="none" xmlns="http://www.w3.org/2000/svg">
<path d="M11.7418 0.462775C11.6215 0.289935 11.4594 0.163538 11.256 0.0833573C11.1265 0.0279046 10.9907 0.000129638 10.8488 0.000129638V0H1.15143C1.00957 0 0.87394 0.027775 0.744367 0.0832276C0.540835 0.163344 0.378853 0.289903 0.258581 0.462646C0.138342 0.635388 0.078125 0.82654 0.078125 1.03633V12.9636C0.078125 13.1735 0.138342 13.3646 0.258581 13.5375C0.378853 13.7102 0.540835 13.8367 0.744367 13.9168C0.873811 13.9723 1.00957 14 1.15143 14C1.44146 14 1.69734 13.8981 1.91947 13.6947L6.00015 9.77117L10.0808 13.6948C10.2968 13.8919 10.5528 13.9906 10.8488 13.9906C11.003 13.9906 11.1388 13.9661 11.256 13.9168C11.4594 13.8367 11.6215 13.7102 11.7418 13.5372C11.862 13.3645 11.9221 13.1734 11.9221 12.9636V1.03646C11.9221 0.826669 11.8619 0.635518 11.7418 0.462775ZM10.7378 12.6766L6.82371 8.91987L6.00015 8.13349L5.17666 8.91987L1.26263 12.6766V1.18454H10.7378V12.6766Z" fill="#2B2C30"/>
</svg>
